<control> default_path=Vibrato\
<region> hikey=d#2 pitch_keycenter=d2 sample=2_D.wav
<region> lokey=e2 hikey=g#2 pitch_keycenter=f#2 sample=2_Gb.wav
<region> lokey=g2 hikey=a#2 pitch_keycenter=a2 sample=2_A.wav
<region> lokey=b2 hikey=d#3 pitch_keycenter=c#3 sample=3_Db.wav
<region> lokey=e3 hikey=f#3 pitch_keycenter=f3 sample=3_F.wav
<region> lokey=g3 hikey=a#3 pitch_keycenter=a3 sample=3_A.wav
<region> lokey=b3 hikey=c#4 pitch_keycenter=c4 sample=4_C.wav
<region> lokey=d4 hikey=e4 pitch_keycenter=d#4 sample=4_Eb.wav
<region> lokey=f4 hikey=g#4 pitch_keycenter=g4 sample=4_G.wav
<region> lokey=a4 pitch_keycenter=a#4 sample=4_Bb.wav
